<svg width="20" height="20" viewBox="0 0 20 20" fill="none" xmlns="http://www.w3.org/2000/svg">
<circle cx="10" cy="10" r="10" fill="white"/>
<path d="M10.6281 19.4419H8.22865V12.4194H7.05971V10.0288H8.22865V9.58057C8.22865 9.00049 8.33705 8.45557 8.55385 7.9458C8.7765 7.43604 9.07826 6.99365 9.45912 6.61865C9.84584 6.23779 10.2941 5.93896 10.8038 5.72217C11.3136 5.49951 11.8585 5.38818 12.4386 5.38818H14.2404V7.77881H12.4386C12.1808 7.77881 11.9406 7.82568 11.7179 7.91943C11.5011 8.00732 11.3107 8.1333 11.1466 8.29736C10.9884 8.45557 10.8624 8.646 10.7687 8.86865C10.6749 9.08545 10.6281 9.32275 10.6281 9.58057V10.0288H13.5724V12.4194H10.6281V19.4419Z" fill="black"/>
</svg>
