<svg width="20" height="20" viewBox="0 0 20 20" fill="none" xmlns="http://www.w3.org/2000/svg">
<ellipse cx="10" cy="7.52838" rx="10" ry="7.52838" fill="white"/>
<path d="M7.20455 18.951L6.84528 12.1909L11.7429 14.0078L7.20455 18.951Z" fill="white"/>
<path d="M6.62266 8.5H6.06406V6.25977H5.22227V5.69922H7.4625V6.25977H6.62266V8.5ZM9.47188 7.38086V6.82031C9.47188 6.74349 9.4569 6.67122 9.42695 6.60352C9.39831 6.53451 9.35859 6.47461 9.30781 6.42383C9.25703 6.37305 9.19714 6.33333 9.12813 6.30469C9.06042 6.27474 8.98815 6.25977 8.91133 6.25977C8.83451 6.25977 8.76159 6.27474 8.69258 6.30469C8.62487 6.33333 8.56563 6.37305 8.51484 6.42383C8.46406 6.47461 8.4237 6.53451 8.39375 6.60352C8.3651 6.67122 8.35078 6.74349 8.35078 6.82031V7.38086H9.47188ZM10.0324 8.5H9.47188V7.93945H8.35078V8.5H7.79219V6.82031C7.79219 6.66536 7.82148 6.52018 7.88008 6.38477C7.93867 6.24805 8.0181 6.12891 8.11836 6.02734C8.21992 5.92578 8.33841 5.8457 8.47383 5.78711C8.61055 5.72852 8.75638 5.69922 8.91133 5.69922C9.06628 5.69922 9.21146 5.72852 9.34688 5.78711C9.48359 5.8457 9.60273 5.92578 9.7043 6.02734C9.80586 6.12891 9.88594 6.24805 9.94453 6.38477C10.0031 6.52018 10.0324 6.66536 10.0324 6.82031V8.5ZM12.6297 8.5H10.6688V5.69922H11.2293V7.93945H12.6297V8.5ZM13.6332 8.5H13.0727V5.69922H13.6332V7.09961L14.6762 5.69922H15.3129L14.4281 6.88086L15.3129 8.5H14.6762L14.0609 7.36719L13.6332 7.93945V8.5Z" fill="black"/>
</svg>
